<svg width="456" height="456" viewBox="0 0 456 456" fill="none" xmlns="http://www.w3.org/2000/svg">
    <path d="M171.141 166.842L196.464 166.769L196.707 251.255C196.729 259.066 194.993 265.855 191.499 271.624C188.045 277.392 183.226 281.843 177.043 284.977C170.859 288.11 163.665 289.689 155.461 289.713C148.164 289.734 141.534 288.471 135.571 285.925C129.647 283.338 124.942 279.408 121.456 274.132C117.969 268.817 116.234 262.136 116.251 254.09L141.75 254.017C141.839 257.212 142.497 259.951 143.727 262.235C144.995 264.48 146.716 266.21 148.889 267.426C151.101 268.604 153.706 269.188 156.704 269.18C159.859 269.171 162.52 268.492 164.685 267.145C166.889 265.758 168.56 263.741 169.697 261.095C170.833 258.45 171.395 255.194 171.384 251.328L171.141 166.842ZM226.562 289.39C222.656 289.401 219.3 288.031 216.491 285.278C213.723 282.486 212.332 279.136 212.321 275.232C212.31 271.366 213.681 268.05 216.434 265.28C219.227 262.511 222.575 261.121 226.481 261.11C230.267 261.099 233.584 262.47 236.432 265.223C239.279 267.976 240.709 271.285 240.72 275.15C240.728 277.754 240.064 280.141 238.729 282.315C237.433 284.448 235.723 286.169 233.597 287.477C231.471 288.746 229.125 289.383 226.562 289.39ZM276.185 289.248C272.281 289.259 268.924 287.888 266.116 285.135C263.346 282.343 261.956 278.994 261.945 275.089C261.934 271.224 263.305 267.907 266.058 265.138C268.851 262.368 272.199 260.979 276.104 260.967C279.89 260.957 283.208 262.327 286.056 265.08C288.903 267.834 290.333 271.142 290.344 275.008C290.351 277.611 289.688 279.999 288.353 282.172C287.058 284.306 285.346 286.027 283.22 287.334C281.094 288.603 278.749 289.24 276.185 289.248ZM325.81 289.105C321.905 289.116 318.549 287.746 315.74 284.992C312.971 282.201 311.581 278.851 311.569 274.947C311.558 271.081 312.929 267.764 315.682 264.995C318.475 262.226 321.824 260.836 325.728 260.825C329.515 260.814 332.832 262.185 335.68 264.938C338.528 267.691 339.957 271 339.968 274.865C339.975 277.468 339.312 279.856 337.977 282.03C336.682 284.163 334.971 285.884 332.845 287.192C330.718 288.461 328.374 289.098 325.81 289.105Z" fill="white"/>
</svg>
