<svg width="456" height="456" viewBox="0 0 456 456" fill="none" xmlns="http://www.w3.org/2000/svg">
    <path d="M178.844 175.064L200.917 175L201.128 248.529C201.148 255.327 199.634 261.236 196.589 266.257C193.578 271.277 189.378 275.15 183.989 277.878C178.598 280.605 172.328 281.979 165.177 282C158.817 282.018 153.038 280.919 147.84 278.703C142.677 276.452 138.576 273.031 135.537 268.439C132.498 263.814 130.985 257.999 131 250.997L153.226 250.933C153.304 253.714 153.877 256.097 154.949 258.085C156.054 260.039 157.555 261.545 159.449 262.603C161.377 263.628 163.647 264.137 166.26 264.13C169.01 264.122 171.33 263.531 173.217 262.359C175.138 261.151 176.595 259.396 177.586 257.093C178.576 254.791 179.066 251.957 179.056 248.593L178.844 175.064ZM227.151 281.719C223.747 281.728 220.821 280.536 218.373 278.14C215.96 275.71 214.748 272.794 214.738 269.397C214.729 266.032 215.924 263.146 218.323 260.735C220.758 258.326 223.676 257.116 227.081 257.106C230.381 257.097 233.272 258.29 235.754 260.686C238.236 263.082 239.482 265.962 239.492 269.325C239.499 271.592 238.92 273.669 237.756 275.561C236.627 277.418 235.136 278.915 233.283 280.054C231.43 281.158 229.385 281.713 227.151 281.719ZM270.404 281.595C267.002 281.605 264.075 280.411 261.628 278.015C259.213 275.586 258.002 272.671 257.992 269.272C257.983 265.909 259.178 263.022 261.577 260.612C264.012 258.201 266.93 256.992 270.334 256.982C273.634 256.973 276.526 258.165 279.008 260.561C281.49 262.958 282.736 265.837 282.746 269.202C282.752 271.467 282.174 273.546 281.01 275.437C279.882 277.294 278.389 278.792 276.536 279.929C274.683 281.034 272.639 281.588 270.404 281.595ZM313.659 281.471C310.256 281.48 307.33 280.288 304.882 277.891C302.468 275.462 301.257 272.546 301.246 269.149C301.237 265.784 302.432 262.897 304.831 260.487C307.266 258.077 310.185 256.868 313.588 256.858C316.889 256.849 319.78 258.042 322.262 260.438C324.745 262.834 325.99 265.714 326 269.077C326.006 271.343 325.428 273.421 324.265 275.313C323.136 277.17 321.644 278.667 319.791 279.806C317.937 280.91 315.894 281.465 313.659 281.471Z" fill="white"/>
</svg>
